<svg width="15" height="16" viewBox="0 0 15 16" fill="none" xmlns="http://www.w3.org/2000/svg">
<path fill-rule="evenodd" clip-rule="evenodd" d="M0.144043 2.28571C0.144043 1.67951 0.397428 1.09812 0.848456 0.66947C1.29948 0.240816 1.91121 0 2.54906 0H8.91394C9.23284 6.47285e-05 9.53865 0.120515 9.76412 0.334857L14.2218 4.57143C14.4473 4.78571 14.5741 5.07635 14.5742 5.37943V13.7143C14.5742 14.3205 14.3208 14.9019 13.8697 15.3305C13.4187 15.7592 12.807 16 12.1691 16H2.54906C1.91121 16 1.29948 15.7592 0.848456 15.3305C0.397428 14.9019 0.144043 14.3205 0.144043 13.7143V2.28571ZM8.56161 4.57143V1.14286L13.3716 5.71429H9.76412C9.44519 5.71429 9.13933 5.59388 8.91381 5.37955C8.6883 5.16522 8.56161 4.87453 8.56161 4.57143ZM5.7309 7.59543C5.7868 7.5423 5.85317 7.50016 5.92621 7.4714C5.99925 7.44265 6.07753 7.42785 6.15659 7.42785C6.23565 7.42785 6.31393 7.44265 6.38697 7.4714C6.46001 7.50016 6.52637 7.5423 6.58228 7.59543C6.63818 7.64856 6.68252 7.71163 6.71278 7.78105C6.74303 7.85046 6.7586 7.92486 6.7586 8C6.7586 8.07514 6.74303 8.14954 6.71278 8.21895C6.68252 8.28837 6.63818 8.35144 6.58228 8.40457L4.60174 10.2857L6.58228 12.1669C6.69518 12.2742 6.7586 12.4197 6.7586 12.5714C6.7586 12.7232 6.69518 12.8687 6.58228 12.976C6.46938 13.0833 6.31625 13.1436 6.15659 13.1436C5.99692 13.1436 5.8438 13.0833 5.7309 12.976L3.32588 10.6903C3.26989 10.6372 3.22547 10.5741 3.19515 10.5047C3.16484 10.4353 3.14924 10.3609 3.14924 10.2857C3.14924 10.2106 3.16484 10.1361 3.19515 10.0667C3.22547 9.99728 3.26989 9.93422 3.32588 9.88114L5.7309 7.59543V7.59543ZM11.3923 9.88114L8.9873 7.59543C8.93139 7.5423 8.86503 7.50016 8.79199 7.4714C8.71895 7.44265 8.64066 7.42785 8.56161 7.42785C8.48255 7.42785 8.40427 7.44265 8.33123 7.4714C8.25819 7.50016 8.19182 7.5423 8.13592 7.59543C8.08002 7.64856 8.03567 7.71163 8.00542 7.78105C7.97516 7.85046 7.95959 7.92486 7.95959 8C7.95959 8.07514 7.97516 8.14954 8.00542 8.21895C8.03567 8.28837 8.08002 8.35144 8.13592 8.40457L10.1165 10.2857L8.13592 12.1669C8.02302 12.2742 7.95959 12.4197 7.95959 12.5714C7.95959 12.7232 8.02302 12.8687 8.13592 12.976C8.24882 13.0833 8.40194 13.1436 8.56161 13.1436C8.72127 13.1436 8.8744 13.0833 8.9873 12.976L11.3923 10.6903C11.4483 10.6372 11.4927 10.5741 11.523 10.5047C11.5534 10.4353 11.569 10.3609 11.569 10.2857C11.569 10.2106 11.5534 10.1361 11.523 10.0667C11.4927 9.99728 11.4483 9.93422 11.3923 9.88114Z" fill="#8752CC"/>
</svg>
