<svg width="17" height="17" viewBox="0 0 17 17" fill="none" xmlns="http://www.w3.org/2000/svg">
<path d="M13.6512 2.22174C11.8984 2.22174 10.4726 3.45385 10.4726 4.96848C10.4726 6.18803 11.4034 7.21217 12.6794 7.57003C12.5468 8.30145 12.1826 8.90416 11.5624 9.39308C9.79507 10.7845 6.54291 10.9116 5.02354 10.8897V6.01773C6.3313 5.67714 7.29396 4.63887 7.29396 3.39891C7.29396 1.88428 5.86814 0.652174 4.11537 0.652174C2.3626 0.652174 0.936768 1.88428 0.936768 3.39891C0.936768 4.63887 1.89943 5.67714 3.2072 6.01773V10.9823C1.89943 11.3229 0.936768 12.3611 0.936768 13.6011C0.936768 15.1157 2.3626 16.3478 4.11537 16.3478C5.86814 16.3478 7.29396 15.1157 7.29396 13.6011C7.29396 13.1687 7.16682 12.7653 6.96067 12.4012C8.8315 12.2552 11.19 11.8071 12.7811 10.5569C13.7774 9.77449 14.3532 8.78017 14.5103 7.59985C15.8444 7.27417 16.8298 6.22413 16.8298 4.96848C16.8298 3.45385 15.4039 2.22174 13.6512 2.22174ZM2.75311 3.39891C2.75311 2.7499 3.36431 2.22174 4.11537 2.22174C4.86642 2.22174 5.47762 2.7499 5.47762 3.39891C5.47762 4.04793 4.86642 4.57609 4.11537 4.57609C3.36431 4.57609 2.75311 4.04793 2.75311 3.39891ZM4.11537 14.7783C3.36431 14.7783 2.75311 14.2501 2.75311 13.6011C2.75356 13.2916 2.89505 12.9947 3.14695 12.7747C3.39884 12.5546 3.74088 12.4292 4.09902 12.4255L4.21708 12.4333C4.39526 12.4391 4.57038 12.4751 4.73244 12.5394C4.8945 12.6037 5.04032 12.6949 5.16159 12.8078C5.28286 12.9208 5.3772 13.0533 5.43921 13.1977C5.50123 13.3422 5.52971 13.4958 5.52303 13.6497C5.51635 13.8037 5.47464 13.955 5.40029 14.0951C5.32593 14.2351 5.22038 14.3611 5.08967 14.4659C4.95896 14.5707 4.80564 14.6522 4.63847 14.7058C4.47129 14.7594 4.29354 14.784 4.11537 14.7783ZM13.6512 6.14565C12.9001 6.14565 12.2889 5.61749 12.2889 4.96848C12.2889 4.31946 12.9001 3.7913 13.6512 3.7913C14.4022 3.7913 15.0134 4.31946 15.0134 4.96848C15.0134 5.61749 14.4022 6.14565 13.6512 6.14565Z" fill="#8752CC"/>
</svg>
