<svg width="18" height="18" viewBox="0 0 18 18" fill="none" xmlns="http://www.w3.org/2000/svg">
<path d="M11.4132 7.07143C12.0342 7.07143 12.5382 7.57543 12.5382 8.19643V12.5351C12.5382 13.473 12.1656 14.3725 11.5024 15.0357C10.8392 15.6989 9.93976 16.0714 9.00186 16.0714C8.06396 16.0714 7.16447 15.6989 6.50128 15.0357C5.83808 14.3725 5.4655 13.473 5.4655 12.5351V8.19643C5.4655 7.57543 5.96886 7.07143 6.5905 7.07143H11.4132ZM2.41064 7.07143L5.22765 7.07015C5.00265 7.34207 4.85736 7.68214 4.82843 8.055L4.822 8.19643V12.5351C4.822 13.2634 5.00907 13.9487 5.33629 14.5453C4.89588 14.7374 4.41454 14.8169 3.93573 14.7765C3.45693 14.7361 2.99573 14.577 2.59376 14.3138C2.1918 14.0505 1.86173 13.6912 1.63335 13.2685C1.40497 12.8457 1.28547 12.3727 1.28564 11.8922V8.19643C1.28629 7.57543 1.78964 7.07143 2.41129 7.07143H2.41064ZM12.7761 7.07015L15.5892 7.07143C16.2102 7.07143 16.7142 7.57543 16.7142 8.19643V11.8929C16.7144 12.3732 16.595 12.846 16.3668 13.2686C16.1385 13.6912 15.8087 14.0504 15.4069 14.3137C15.0052 14.5769 14.5442 14.736 14.0656 14.7766C13.587 14.8171 13.1058 14.7378 12.6655 14.5459L12.7015 14.4804C12.9773 13.9577 13.1451 13.3689 13.1759 12.7446L13.1811 12.5351V8.19643C13.1811 7.76829 13.0287 7.37614 12.7761 7.07015ZM8.99993 1.92857C9.29541 1.92857 9.58799 1.98677 9.86097 2.09984C10.134 2.21292 10.382 2.37865 10.5909 2.58758C10.7999 2.79652 10.9656 3.04455 11.0787 3.31754C11.1917 3.59052 11.2499 3.8831 11.2499 4.17857C11.2499 4.47405 11.1917 4.76663 11.0787 5.03961C10.9656 5.31259 10.7999 5.56063 10.5909 5.76956C10.382 5.9785 10.134 6.14423 9.86097 6.2573C9.58799 6.37038 9.29541 6.42857 8.99993 6.42857C8.40319 6.42857 7.8309 6.19152 7.40894 5.76956C6.98698 5.34761 6.74993 4.77531 6.74993 4.17857C6.74993 3.58184 6.98698 3.00954 7.40894 2.58758C7.8309 2.16563 8.40319 1.92857 8.99993 1.92857ZM14.1447 2.57143C14.398 2.57143 14.6488 2.62131 14.8827 2.71823C15.1167 2.81515 15.3293 2.95721 15.5084 3.1363C15.6875 3.31538 15.8296 3.52798 15.9265 3.76197C16.0234 3.99595 16.0733 4.24674 16.0733 4.5C16.0733 4.75327 16.0234 5.00405 15.9265 5.23803C15.8296 5.47202 15.6875 5.68462 15.5084 5.86371C15.3293 6.04279 15.1167 6.18485 14.8827 6.28177C14.6488 6.37869 14.398 6.42857 14.1447 6.42857C13.6332 6.42857 13.1427 6.22539 12.781 5.86371C12.4193 5.50203 12.2161 5.01149 12.2161 4.5C12.2161 3.98851 12.4193 3.49797 12.781 3.1363C13.1427 2.77462 13.6332 2.57143 14.1447 2.57143ZM3.85514 2.57143C4.10841 2.57143 4.35919 2.62131 4.59318 2.71823C4.82716 2.81515 5.03977 2.95721 5.21885 3.1363C5.39794 3.31538 5.53999 3.52798 5.63691 3.76197C5.73383 3.99595 5.78372 4.24674 5.78372 4.5C5.78372 4.75327 5.73383 5.00405 5.63691 5.23803C5.53999 5.47202 5.39794 5.68462 5.21885 5.86371C5.03977 6.04279 4.82716 6.18485 4.59318 6.28177C4.35919 6.37869 4.10841 6.42857 3.85514 6.42857C3.34366 6.42857 2.85312 6.22539 2.49144 5.86371C2.12976 5.50203 1.92657 5.01149 1.92657 4.5C1.92657 3.98851 2.12976 3.49797 2.49144 3.1363C2.85312 2.77462 3.34366 2.57143 3.85514 2.57143Z" fill="#8752CC"/>
</svg>
