<svg width="18" height="18" viewBox="0 0 18 18" fill="none" xmlns="http://www.w3.org/2000/svg">
<path d="M11.0918 7.07143C11.4754 7.07143 11.8433 7.22382 12.1146 7.49508C12.3858 7.76634 12.5382 8.13424 12.5382 8.51786V12.5351C12.5382 13.473 12.1656 14.3725 11.5024 15.0357C10.8392 15.6989 9.93976 16.0714 9.00186 16.0714C8.06396 16.0714 7.16447 15.6989 6.50128 15.0357C5.83808 14.3725 5.4655 13.473 5.4655 12.5351V8.51786C5.4655 8.13424 5.61789 7.76634 5.88915 7.49508C6.16041 7.22382 6.52831 7.07143 6.91193 7.07143H11.0918ZM11.0918 8.03572H6.91193C6.78406 8.03572 6.66142 8.08651 6.571 8.17693C6.48059 8.26735 6.42979 8.38999 6.42979 8.51786V12.5351C6.42979 13.2172 6.70077 13.8714 7.18313 14.3538C7.66549 14.8362 8.3197 15.1071 9.00186 15.1071C9.68402 15.1071 10.3382 14.8362 10.8206 14.3538C11.3029 13.8714 11.5739 13.2172 11.5739 12.5351V8.51786C11.5739 8.38999 11.5231 8.26735 11.4327 8.17693C11.3423 8.08651 11.2197 8.03572 11.0918 8.03572ZM2.73207 7.07143H5.40379C5.14569 7.34015 4.96433 7.67313 4.87857 8.03572H2.73207C2.6042 8.03572 2.48157 8.08651 2.39115 8.17693C2.30073 8.26735 2.24993 8.38999 2.24993 8.51786V11.8922C2.24984 12.2148 2.33063 12.5322 2.48491 12.8155C2.63919 13.0987 2.86203 13.3388 3.13305 13.5137C3.40407 13.6886 3.71461 13.7928 4.03628 13.8166C4.35796 13.8405 4.68048 13.7834 4.97436 13.6504C5.05986 13.9654 5.18265 14.265 5.33693 14.5453C4.89649 14.7376 4.41508 14.8172 3.93619 14.7768C3.45729 14.7364 2.99599 14.5774 2.59394 14.3142C2.19189 14.0509 1.86175 13.6916 1.63334 13.2687C1.40492 12.8459 1.28543 12.3728 1.28564 11.8922V8.51786C1.28564 8.13424 1.43804 7.76634 1.70929 7.49508C1.98055 7.22382 2.34846 7.07143 2.73207 7.07143ZM15.2678 7.07143C15.6514 7.07143 16.0193 7.22382 16.2906 7.49508C16.5618 7.76634 16.7142 8.13424 16.7142 8.51786V11.8929C16.7144 12.3732 16.595 12.846 16.3668 13.2686C16.1385 13.6912 15.8087 14.0504 15.4069 14.3137C15.0052 14.5769 14.5442 14.736 14.0656 14.7766C13.587 14.8171 13.1058 14.7378 12.6655 14.5459L12.7015 14.4804C12.8391 14.2194 12.9503 13.9423 13.03 13.6517C13.3237 13.7839 13.6459 13.8404 13.967 13.816C14.2882 13.7917 14.5981 13.6873 14.8686 13.5125C15.1391 13.3376 15.3614 13.0977 15.5154 12.8148C15.6693 12.5319 15.75 12.2149 15.7499 11.8929V8.51786C15.7499 8.3901 15.6992 8.26756 15.6089 8.17716C15.5187 8.08676 15.3962 8.03589 15.2684 8.03572H13.1258C13.0399 7.67305 12.8583 7.34006 12.5999 7.07143H15.2684H15.2678ZM8.99993 1.92857C9.29541 1.92857 9.58799 1.98677 9.86097 2.09984C10.134 2.21292 10.382 2.37865 10.5909 2.58758C10.7999 2.79652 10.9656 3.04455 11.0787 3.31754C11.1917 3.59052 11.2499 3.8831 11.2499 4.17857C11.2499 4.47405 11.1917 4.76663 11.0787 5.03961C10.9656 5.31259 10.7999 5.56063 10.5909 5.76956C10.382 5.9785 10.134 6.14423 9.86097 6.2573C9.58799 6.37038 9.29541 6.42857 8.99993 6.42857C8.40319 6.42857 7.8309 6.19152 7.40894 5.76956C6.98698 5.34761 6.74993 4.77531 6.74993 4.17857C6.74993 3.58184 6.98698 3.00954 7.40894 2.58758C7.8309 2.16563 8.40319 1.92857 8.99993 1.92857ZM14.1447 2.57143C14.398 2.57143 14.6488 2.62131 14.8827 2.71823C15.1167 2.81515 15.3293 2.95721 15.5084 3.1363C15.6875 3.31538 15.8296 3.52798 15.9265 3.76197C16.0234 3.99595 16.0733 4.24674 16.0733 4.5C16.0733 4.75327 16.0234 5.00405 15.9265 5.23803C15.8296 5.47202 15.6875 5.68462 15.5084 5.86371C15.3293 6.04279 15.1167 6.18485 14.8827 6.28177C14.6488 6.37869 14.398 6.42857 14.1447 6.42857C13.6332 6.42857 13.1427 6.22539 12.781 5.86371C12.4193 5.50203 12.2161 5.01149 12.2161 4.5C12.2161 3.98851 12.4193 3.49797 12.781 3.1363C13.1427 2.77462 13.6332 2.57143 14.1447 2.57143ZM3.85515 2.57143C4.10841 2.57143 4.35919 2.62131 4.59318 2.71823C4.82716 2.81515 5.03977 2.95721 5.21885 3.1363C5.39794 3.31538 5.53999 3.52798 5.63691 3.76197C5.73383 3.99595 5.78372 4.24674 5.78372 4.5C5.78372 4.75327 5.73383 5.00405 5.63691 5.23803C5.53999 5.47202 5.39794 5.68462 5.21885 5.86371C5.03977 6.04279 4.82716 6.18485 4.59318 6.28177C4.35919 6.37869 4.10841 6.42857 3.85515 6.42857C3.34366 6.42857 2.85312 6.22539 2.49144 5.86371C2.12976 5.50203 1.92657 5.01149 1.92657 4.5C1.92657 3.98851 2.12976 3.49797 2.49144 3.1363C2.85312 2.77462 3.34366 2.57143 3.85515 2.57143ZM8.99993 2.89286C8.65894 2.89286 8.33191 3.02832 8.09079 3.26944C7.84968 3.51055 7.71422 3.83758 7.71422 4.17857C7.71422 4.51957 7.84968 4.84659 8.09079 5.08771C8.33191 5.32883 8.65894 5.46429 8.99993 5.46429C9.34092 5.46429 9.66795 5.32883 9.90907 5.08771C10.1502 4.84659 10.2856 4.51957 10.2856 4.17857C10.2856 3.83758 10.1502 3.51055 9.90907 3.26944C9.66795 3.02832 9.34092 2.89286 8.99993 2.89286ZM14.1447 3.53572C14.0181 3.53572 13.8927 3.56066 13.7757 3.60912C13.6587 3.65758 13.5524 3.72861 13.4629 3.81815C13.3733 3.90769 13.3023 4.01399 13.2538 4.13099C13.2054 4.24798 13.1804 4.37337 13.1804 4.5C13.1804 4.62663 13.2054 4.75203 13.2538 4.86902C13.3023 4.98601 13.3733 5.09231 13.4629 5.18186C13.5524 5.2714 13.6587 5.34243 13.7757 5.39089C13.8927 5.43935 14.0181 5.46429 14.1447 5.46429C14.4005 5.46429 14.6457 5.36269 14.8266 5.18186C15.0074 5.00102 15.109 4.75575 15.109 4.5C15.109 4.24426 15.0074 3.99899 14.8266 3.81815C14.6457 3.63731 14.4005 3.53572 14.1447 3.53572ZM3.85515 3.53572C3.72851 3.53572 3.60312 3.56066 3.48613 3.60912C3.36914 3.65758 3.26283 3.72861 3.17329 3.81815C3.08375 3.90769 3.01272 4.01399 2.96426 4.13099C2.9158 4.24798 2.89086 4.37337 2.89086 4.5C2.89086 4.62663 2.9158 4.75203 2.96426 4.86902C3.01272 4.98601 3.08375 5.09231 3.17329 5.18186C3.26283 5.2714 3.36914 5.34243 3.48613 5.39089C3.60312 5.43935 3.72851 5.46429 3.85515 5.46429C4.11089 5.46429 4.35616 5.36269 4.537 5.18186C4.71784 5.00102 4.81943 4.75575 4.81943 4.5C4.81943 4.24426 4.71784 3.99899 4.537 3.81815C4.35616 3.63731 4.11089 3.53572 3.85515 3.53572Z" fill="#8752CC"/>
</svg>
