<svg width="19" height="19" viewBox="0 0 19 19" fill="none" xmlns="http://www.w3.org/2000/svg">
<path d="M7.80357 1.35714C9.51327 1.35714 11.1529 2.03631 12.3619 3.24525C13.5708 4.4542 14.25 6.09387 14.25 7.80357C14.25 9.21635 13.7954 10.5226 13.0252 11.5852L17.345 15.905C17.5317 16.0891 17.6403 16.3381 17.648 16.6002C17.6556 16.8623 17.5619 17.1173 17.3862 17.312C17.2105 17.5066 16.9665 17.626 16.7049 17.6452C16.4434 17.6643 16.1846 17.5818 15.9824 17.4149L15.905 17.345L11.5852 13.0252C10.4861 13.8234 9.16198 14.2522 7.80357 14.25C6.09387 14.25 4.45419 13.5708 3.24525 12.3619C2.03631 11.1529 1.35714 9.51327 1.35714 7.80357C1.35714 6.09387 2.03631 4.4542 3.24525 3.24525C4.45419 2.03631 6.09387 1.35714 7.80357 1.35714ZM7.80357 3.39285C6.63377 3.39285 5.51189 3.85755 4.68472 4.68472C3.85755 5.51189 3.39285 6.63377 3.39285 7.80357C3.39285 8.97336 3.85755 10.0952 4.68472 10.9224C5.51189 11.7496 6.63377 12.2143 7.80357 12.2143C8.97336 12.2143 10.0952 11.7496 10.9224 10.9224C11.7496 10.0952 12.2143 8.97336 12.2143 7.80357C12.2143 6.63377 11.7496 5.51189 10.9224 4.68472C10.0952 3.85755 8.97336 3.39285 7.80357 3.39285Z" fill="white"/>
</svg>
